<?xml version="1.0" standalone="no"?>
<!DOCTYPE svg PUBLIC "-//W3C//DTD SVG 20010904//EN"
 "http://www.w3.org/TR/2001/REC-SVG-20010904/DTD/svg10.dtd">
<svg version="1.0" xmlns="http://www.w3.org/2000/svg"
 width="540.000000pt" height="540.000000pt" viewBox="0 0 540.000000 540.000000"
 preserveAspectRatio="xMidYMid meet">
<metadata>
Created by potrace 1.14, written by Peter Selinger 2001-2017
</metadata>
<g transform="translate(0.000000,540.000000) scale(0.100000,-0.100000)"
fill="#000000" stroke="none">
<path d="M2505 5394 c-400 -34 -806 -157 -1132 -345 -233 -134 -390 -255 -584
-448 -419 -420 -674 -932 -764 -1531 -34 -230 -30 -572 10 -808 66 -387 202
-729 420 -1057 399 -599 1016 -1014 1720 -1154 159 -32 257 -42 460 -48 614
-17 1190 168 1694 545 134 100 396 356 493 482 299 389 477 803 551 1280 27
178 29 586 4 753 -94 610 -345 1115 -767 1538 -424 425 -930 681 -1523 770
-129 19 -465 32 -582 23z m625 -107 c279 -50 515 -128 758 -251 780 -397 1316
-1166 1417 -2035 19 -162 19 -441 0 -604 -68 -580 -316 -1100 -725 -1521 -403
-415 -884 -667 -1466 -768 -113 -20 -164 -22 -414 -22 -307 0 -410 11 -639 69
-772 195 -1425 742 -1754 1469 -105 234 -191 553 -217 805 -25 251 -7 570 46
822 77 368 272 779 514 1084 334 419 833 749 1346 890 275 76 438 95 749 91
202 -3 263 -8 385 -29z"/>
<path d="M2644 5202 c-12 -9 -27 -27 -33 -39 -14 -28 -14 -105 0 -136 24 -52
117 -74 178 -42 23 11 51 57 51 81 0 2 -17 4 -39 4 -30 0 -40 -4 -44 -20 -6
-25 -49 -27 -68 -4 -7 9 -13 31 -13 49 0 18 6 40 13 49 19 22 58 20 71 -4 8
-14 21 -20 45 -20 19 0 35 5 35 10 0 21 -30 70 -49 80 -32 17 -123 12 -147 -8z"/>
<path d="M2879 5091 c-14 -118 -14 -120 6 -125 46 -13 52 -8 58 44 7 61 12 70
38 70 19 0 20 -4 14 -64 l-7 -63 33 -6 c19 -2 35 -4 37 -2 1 1 5 38 9 81 7 93
-4 109 -69 108 -39 -1 -40 -1 -36 32 3 26 0 34 -17 38 -49 14 -50 12 -66 -113z"/>
<path d="M2181 5161 c-21 -14 -5 -91 20 -91 20 0 23 16 13 69 -7 33 -11 36
-33 22z"/>
<path d="M2317 5130 c-42 -13 -57 -29 -57 -61 0 -32 23 -49 67 -49 40 0 62
-15 45 -32 -10 -10 -17 -10 -32 0 -23 14 -66 16 -75 3 -9 -15 45 -51 77 -51
47 0 97 26 103 53 11 43 -10 66 -65 73 -48 6 -61 16 -40 29 6 4 17 2 24 -5 15
-11 66 -4 66 10 0 26 -68 44 -113 30z"/>
<path d="M1948 5113 c-10 -2 -18 -10 -18 -16 0 -16 56 -217 62 -223 10 -10 69
19 64 32 -18 48 -26 98 -17 107 19 19 39 -2 55 -57 l16 -55 33 11 c17 6 33 12
34 12 1 1 -7 32 -18 69 -28 95 -74 119 -131 70 -15 -14 -17 -12 -23 21 -7 36
-15 40 -57 29z"/>
<path d="M3117 5044 c-10 -44 -13 -74 -7 -90 10 -25 46 -39 83 -32 13 3 29 -2
36 -9 7 -8 22 -13 34 -11 18 2 25 16 39 78 10 41 16 80 14 86 -3 6 -18 13 -34
16 -30 4 -31 3 -44 -51 -11 -46 -17 -57 -35 -59 -26 -4 -28 8 -12 77 11 48 3
61 -38 61 -18 0 -24 -9 -36 -66z"/>
<path d="M3369 5022 c-6 -20 -20 -59 -30 -85 l-19 -48 32 -14 33 -13 22 50
c20 45 26 50 49 45 20 -4 27 1 35 21 14 37 4 55 -26 48 -14 -4 -25 -2 -25 3 0
5 -13 14 -29 19 -29 10 -30 9 -42 -26z"/>
<path d="M1798 4993 c-9 -9 -29 -17 -44 -19 -15 -2 -31 -7 -36 -12 -5 -5 9
-55 37 -124 l46 -116 30 12 c31 11 32 15 14 73 -6 18 -4 21 14 16 23 -6 81 45
81 71 0 29 -32 96 -51 106 -27 15 -73 12 -91 -7z m61 -69 c13 -29 1 -54 -25
-54 -18 0 -39 44 -31 64 10 25 43 19 56 -10z"/>
<path d="M3545 4981 c-32 -13 -55 -45 -62 -83 -4 -29 0 -41 24 -68 36 -41 111
-54 143 -25 27 24 25 29 -12 43 -24 9 -35 9 -45 0 -11 -9 -18 -8 -30 5 -14 13
-14 20 -3 46 14 35 49 42 57 12 2 -10 20 -23 39 -29 31 -9 34 -9 34 12 0 31
-28 66 -66 82 -37 16 -50 16 -79 5z"/>
<path d="M3732 4864 c-29 -57 -52 -108 -52 -113 0 -7 43 -31 55 -31 3 0 16 23
30 50 18 35 31 50 45 50 26 0 25 -20 -4 -79 l-25 -48 33 -16 33 -15 31 61 c18
34 32 71 32 83 0 26 -26 50 -62 59 -33 8 -32 8 -14 44 14 27 14 28 -18 43
l-32 16 -52 -104z"/>
<path d="M1565 4898 c-52 -28 -68 -83 -41 -137 14 -27 53 -51 83 -51 29 0 92
43 104 72 6 16 9 31 6 34 -7 7 -67 -24 -67 -35 0 -16 -33 -22 -47 -8 -11 11
-4 18 47 42 33 16 60 32 60 35 0 4 -12 19 -26 34 -29 28 -82 35 -119 14z m43
-64 c-30 -17 -38 -17 -38 1 0 21 32 36 48 22 11 -8 9 -13 -10 -23z"/>
<path d="M2415 4884 c-486 -66 -921 -280 -1266 -624 -131 -130 -199 -213 -292
-356 -242 -371 -356 -755 -357 -1201 0 -205 19 -370 65 -549 195 -763 792
-1371 1550 -1579 222 -60 302 -70 585 -70 283 0 363 10 585 70 586 160 1083
562 1368 1105 272 519 324 1144 141 1703 -154 471 -469 884 -878 1153 l-60 39
33 3 c24 3 39 13 62 44 l29 41 -27 19 c-36 23 -36 23 -56 -11 -11 -19 -14 -32
-7 -36 17 -11 11 -25 -10 -25 -11 0 -23 -7 -26 -15 -5 -12 -16 -8 -57 16 -156
92 -429 198 -613 239 -230 50 -549 64 -769 34z m588 -80 c636 -89 1213 -481
1540 -1045 400 -693 374 -1568 -68 -2229 -488 -730 -1353 -1089 -2202 -914
-800 164 -1437 776 -1638 1573 -153 608 -23 1256 356 1775 93 127 305 341 429
432 347 256 711 392 1145 428 86 7 322 -4 438 -20z"/>
<path d="M2527 4730 c-14 -16 -28 -47 -32 -69 -3 -22 -17 -49 -31 -62 -26 -24
-30 -52 -14 -95 8 -20 7 -32 -5 -50 -8 -13 -15 -35 -15 -49 0 -23 -3 -25 -22
-19 -13 3 -35 13 -50 20 -15 8 -32 14 -38 14 -19 0 -120 69 -149 103 -105 119
-97 112 -128 101 -27 -9 -28 -13 -28 -70 0 -44 -5 -65 -17 -78 -24 -23 -23
-60 3 -106 20 -36 21 -39 5 -61 -22 -32 -20 -85 4 -109 11 -11 22 -20 25 -20
3 0 8 0 13 0 23 -1 34 -18 23 -39 -28 -51 33 -131 101 -131 25 0 28 -3 26 -27
-2 -34 10 -73 23 -73 5 0 9 -5 9 -11 0 -5 -4 -7 -10 -4 -5 3 -10 2 -10 -2 0
-10 -230 -8 -299 2 -40 6 -43 5 -32 -8 35 -43 181 -54 274 -21 35 13 38 12 27
-2 -18 -21 -39 -31 -133 -65 -97 -35 -120 -37 -52 -3 40 19 44 23 20 19 -16
-2 -79 -8 -138 -11 -104 -7 -142 -18 -95 -28 13 -3 43 -9 68 -14 l45 -8 -67
-13 c-71 -14 -82 -26 -54 -63 19 -26 93 -56 127 -52 20 3 29 -1 29 -10 0 -8
14 -26 32 -41 27 -23 39 -26 76 -22 24 3 53 14 65 25 16 15 27 18 37 12 31
-20 79 -11 112 20 17 17 42 30 55 30 32 0 83 54 83 86 0 22 3 24 28 18 15 -4
37 -11 49 -15 13 -5 36 -6 52 -3 34 7 54 -14 22 -23 -31 -8 -20 -27 16 -31 25
-2 35 3 52 26 11 16 18 32 15 34 -2 3 10 11 28 19 41 16 113 64 160 105 29 25
98 144 98 168 0 4 11 31 24 60 36 79 128 143 151 106 3 -5 2 -10 -3 -10 -5 0
-25 -12 -45 -27 -19 -16 -43 -33 -52 -38 -28 -17 -3 -55 35 -55 29 0 65 34 54
52 -3 4 1 5 9 2 8 -3 18 6 25 21 6 14 18 25 26 25 7 0 19 7 26 15 20 24 36 18
54 -19 19 -41 56 -56 137 -56 41 0 58 4 56 12 -1 7 -27 39 -58 70 -31 32 -50
58 -42 58 7 0 13 5 13 11 0 7 10 9 25 7 14 -3 25 -1 25 3 0 5 16 9 35 9 27 0
35 -4 35 -18 0 -10 -5 -23 -11 -29 -19 -19 -1 -61 46 -111 25 -26 45 -51 45
-55 0 -5 5 -5 10 -2 25 15 3 165 -24 165 -7 0 -13 7 -13 15 0 8 1 15 2 15 1 0
23 -7 48 -16 47 -16 82 -54 58 -62 -16 -5 -14 -89 5 -127 8 -18 24 -35 34 -38
14 -4 19 3 24 32 9 54 7 99 -4 106 -5 3 -10 11 -10 16 0 5 11 -1 25 -15 18
-18 25 -36 25 -63 1 -44 9 -56 72 -103 26 -19 48 -41 48 -47 0 -15 26 -17 34
-4 3 5 -1 28 -9 51 -8 23 -15 56 -15 72 0 54 -42 108 -83 108 -13 0 -32 9 -42
20 -18 20 -17 20 11 21 16 0 38 3 49 5 11 2 37 7 58 10 20 3 37 10 37 15 0 5
-18 21 -40 35 -55 37 -121 37 -159 0 -27 -26 -61 -35 -61 -16 0 5 -3 9 -7 8
-14 -3 -63 14 -63 21 0 4 15 18 33 31 36 27 72 69 72 85 0 14 -56 16 -72 3 -8
-6 -16 -8 -19 -5 -6 6 -13 1 -46 -30 -22 -21 -39 -43 -33 -43 4 0 0 -6 -7 -13
-11 -11 -138 -20 -138 -10 0 2 13 9 29 14 17 6 32 20 35 33 3 13 19 38 36 56
37 39 37 48 5 48 -14 0 -25 -3 -25 -7 0 -3 -10 -6 -22 -7 -37 -1 -52 -8 -76
-34 -26 -29 -36 -61 -29 -92 5 -20 -2 -27 -48 -49 -65 -32 -81 -23 -72 42 5
36 2 44 -27 74 -29 30 -62 42 -91 35 -5 -2 -14 -4 -20 -4 -5 -1 -42 -20 -81
-43 -104 -61 -126 -71 -132 -54 -2 7 -29 40 -59 74 -107 120 -150 219 -139
319 l7 58 -30 0 c-20 0 -37 -9 -54 -30z m43 -80 c0 -33 7 -79 17 -102 20 -53
104 -172 152 -216 l36 -33 -42 21 c-25 12 -62 20 -93 20 -27 0 -50 4 -50 9 0
6 -15 7 -33 4 -38 -6 -87 27 -87 58 0 24 15 24 32 0 16 -22 65 -47 74 -38 4 3
-10 26 -30 50 -47 57 -82 135 -67 150 13 13 14 12 32 -38 9 -24 22 -41 33 -43
14 -3 17 0 13 12 -31 80 -32 206 -2 206 12 0 15 -14 15 -60z m-450 -114 c71
-86 110 -115 209 -157 76 -32 244 -69 312 -69 65 0 129 -44 129 -88 0 -25 24
-27 26 -1 1 8 2 21 3 29 2 17 43 50 70 55 24 4 70 28 117 60 46 31 66 31 101
1 24 -21 28 -32 28 -76 0 -44 -2 -50 -18 -46 -10 2 -41 -3 -70 -13 -65 -22
-117 -86 -142 -175 -32 -115 -61 -160 -134 -210 -91 -63 -164 -78 -280 -60
-46 7 -88 11 -92 8 -5 -3 -9 -19 -9 -36 0 -21 -10 -40 -37 -66 l-37 -37 -6 30
c-6 28 -7 29 -14 7 -4 -12 -19 -36 -33 -52 -19 -23 -33 -30 -61 -30 -28 0 -33
3 -24 12 17 17 16 42 0 29 -81 -66 -113 -77 -163 -57 -37 16 -60 42 -45 51 23
14 8 22 -33 18 -26 -3 -56 1 -77 10 l-35 15 40 2 c63 2 268 65 303 93 7 5 27
17 45 26 17 9 41 30 52 48 16 26 27 32 55 33 20 0 45 7 57 15 12 8 23 12 25 7
2 -4 16 -17 31 -29 23 -18 33 -20 55 -12 15 5 33 17 40 26 6 9 25 18 41 19 55
4 81 27 95 88 6 26 5 28 -8 17 -9 -8 -16 -22 -16 -32 0 -19 -32 -43 -60 -45
-53 -4 -55 -4 -42 -13 10 -6 4 -13 -21 -25 -35 -16 -66 -22 -54 -9 8 8 -13 34
-22 28 -4 -2 -5 10 -3 28 l5 32 -24 -20 c-13 -11 -28 -26 -32 -32 -10 -16 -65
-16 -96 0 -14 6 -29 25 -34 41 -9 26 -7 32 19 54 19 16 22 22 9 16 -55 -22
-143 7 -164 53 -16 36 14 85 33 54 7 -11 57 -4 95 12 23 9 16 12 -56 17 -52 5
-93 14 -115 27 -29 17 -33 24 -33 63 0 51 12 59 47 28 28 -26 35 -28 93 -35
40 -4 40 -4 -21 25 -65 31 -114 76 -114 104 0 9 -4 20 -10 23 -14 8 -13 48 2
63 9 9 22 0 57 -36 30 -32 62 -53 94 -64 26 -8 47 -11 47 -7 0 5 -6 9 -12 9
-13 0 -41 22 -105 78 -57 52 -91 133 -60 145 6 3 13 6 14 6 1 1 29 -32 63 -73z"/>
<path d="M2243 4344 c-10 -18 -9 -24 6 -38 9 -9 24 -16 32 -16 11 1 10 3 -3
13 -9 7 -18 24 -20 37 -3 25 -4 25 -15 4z"/>
<path d="M2376 4302 c-7 -12 19 -35 34 -30 7 2 3 11 -8 21 -11 10 -23 14 -26
9z"/>
<path d="M3015 4300 c-3 -5 -1 -19 5 -31 11 -19 13 -20 30 -4 10 9 16 23 13
31 -6 16 -39 19 -48 4z"/>
<path d="M2275 4203 c4 -16 8 -29 9 -30 8 -8 67 -9 72 -2 3 5 -6 9 -21 9 -17
0 -29 8 -37 25 -15 34 -32 32 -23 -2z"/>
<path d="M2420 4201 c0 -13 29 -35 37 -28 7 8 -15 37 -28 37 -5 0 -9 -4 -9 -9z"/>
<path d="M2290 4085 c0 -9 12 -20 26 -25 21 -8 33 -6 58 11 17 11 24 19 16 16
-8 -2 -25 -7 -36 -11 -14 -4 -28 -1 -37 9 -20 19 -27 19 -27 0z"/>
<path d="M2511 4065 c-2 -20 -55 -44 -74 -33 -23 13 -27 9 -16 -19 7 -21 11
-22 36 -11 39 16 66 43 60 59 -3 8 -6 9 -6 4z"/>
<path d="M2639 4053 c-13 -16 -12 -17 4 -4 16 13 21 21 13 21 -2 0 -10 -8 -17
-17z"/>
<path d="M2580 4030 c-22 -6 -23 -8 -7 -15 12 -5 24 -2 35 9 17 17 12 18 -28
6z"/>
<path d="M1774 4157 c-40 -22 -113 -114 -151 -188 -31 -62 -134 -189 -153
-189 -3 0 -4 29 -2 63 5 90 -11 141 -51 164 -40 24 -89 14 -113 -23 -33 -49
-54 -193 -51 -351 l2 -148 -43 -82 c-24 -46 -44 -92 -45 -103 -1 -15 -8 -19
-31 -17 -28 2 -31 -1 -37 -38 -4 -22 -3 -44 1 -50 5 -5 9 -13 9 -18 0 -4 3
-18 7 -31 6 -27 -12 -69 -28 -64 -15 5 -48 98 -48 137 0 38 -24 73 -46 64 -16
-6 -19 -63 -4 -63 6 0 10 -6 8 -12 -1 -7 5 -26 14 -43 24 -46 38 -103 45 -185
l6 -75 -41 45 c-23 25 -47 61 -53 80 -17 49 -48 88 -68 85 -9 -2 -19 -4 -23
-4 -14 -2 31 -96 53 -111 13 -8 39 -31 57 -50 38 -39 78 -130 61 -140 -5 -4
-9 -13 -7 -21 2 -9 -6 -14 -22 -15 -14 -1 -31 -2 -38 -3 -25 -2 -2 -19 48 -36
54 -18 95 -61 116 -121 10 -28 9 -36 -6 -49 -16 -15 -20 -13 -44 15 -14 17
-26 36 -26 41 0 19 -52 30 -87 18 -40 -13 -93 -80 -93 -116 0 -44 -35 -97 -74
-111 -38 -14 -51 -13 -51 3 -1 6 -7 31 -14 57 l-14 48 37 40 c20 23 36 50 36
64 0 14 8 32 17 42 22 22 112 64 138 64 19 1 19 1 2 14 -17 13 -35 12 -105
-10 -34 -10 -107 14 -137 46 l-27 28 44 41 c54 52 80 59 127 36 20 -10 44 -20
54 -22 16 -3 17 -1 1 28 -15 29 -68 89 -80 89 -16 0 -75 68 -83 95 -10 38 -3
88 11 79 6 -4 6 1 0 13 -10 18 -7 19 43 17 29 -1 58 -4 64 -8 6 -4 11 -4 11 1
0 17 86 -86 105 -125 22 -45 35 -54 35 -22 0 11 -5 20 -11 20 -5 0 -7 5 -4 10
9 14 -36 88 -78 128 -28 27 -46 35 -98 42 -35 5 -79 14 -96 19 -25 7 -33 7
-33 -3 0 -7 3 -16 7 -20 4 -4 6 -39 5 -77 -4 -86 10 -131 51 -164 18 -13 42
-33 54 -42 30 -23 29 -35 -1 -23 -20 7 -32 2 -77 -36 -30 -24 -59 -48 -64 -52
-6 -5 -16 -7 -23 -4 -6 2 -12 -3 -12 -11 0 -21 96 -107 120 -107 24 0 24 -4 6
-38 -8 -15 -20 -41 -26 -59 -7 -18 -23 -39 -36 -48 -30 -19 -31 -52 -4 -105
11 -22 20 -59 20 -85 0 -50 9 -56 40 -22 11 12 40 31 63 42 37 18 46 29 77
100 49 112 49 112 71 79 12 -18 18 -46 18 -79 -1 -27 7 -93 16 -145 9 -52 18
-105 19 -118 2 -12 6 -25 9 -29 4 -3 7 -19 7 -35 0 -15 4 -28 10 -28 5 0 7 -7
3 -16 -3 -9 0 -20 8 -24 7 -5 10 -13 5 -17 -12 -12 -46 35 -46 64 0 61 -82
163 -132 163 -60 0 -135 -53 -173 -123 -16 -30 -16 -36 0 -90 l17 -58 41 34
c58 47 80 57 123 57 33 0 44 -7 100 -68 35 -38 86 -100 113 -138 28 -38 55
-75 61 -81 6 -7 8 -13 5 -13 -3 0 2 -14 12 -30 9 -17 21 -30 25 -30 4 0 8 -9
8 -19 0 -11 3 -21 8 -23 9 -4 52 -65 52 -74 0 -4 16 -25 36 -48 53 -60 77 -89
94 -110 14 -18 13 -18 -16 -12 -16 4 -59 22 -94 41 -36 19 -87 46 -114 61 -63
33 -137 45 -198 31 l-47 -10 15 -26 c9 -14 39 -44 66 -65 28 -22 56 -53 63
-70 27 -65 57 -78 195 -83 58 -2 128 -8 157 -14 53 -10 148 -65 202 -116 16
-15 47 -42 68 -60 21 -17 48 -41 60 -52 12 -12 25 -21 28 -21 4 0 38 -20 76
-45 38 -25 74 -45 78 -45 5 0 11 -4 13 -8 7 -18 201 -102 256 -111 73 -12 100
1 123 56 17 41 17 42 -6 90 -23 44 -30 50 -102 80 -43 17 -98 36 -123 43 -51
14 -128 47 -150 66 -8 6 -34 23 -57 35 -42 24 -102 69 -135 102 -10 9 -21 17
-25 17 -9 0 -57 67 -66 92 -3 9 1 38 10 65 11 37 13 76 9 169 -6 141 1 164 47
143 15 -7 27 -16 27 -20 0 -4 6 -9 13 -12 22 -8 8 42 -26 94 -28 44 -79 79
-113 79 -22 0 -75 -29 -106 -57 -49 -47 -47 -181 5 -305 10 -26 16 -55 13 -65
-6 -15 -10 -14 -29 11 -12 16 -37 42 -54 60 -18 17 -33 37 -33 44 0 8 -11 23
-25 33 -13 11 -38 49 -56 84 -38 78 -36 103 17 231 19 47 37 109 40 137 6 63
34 177 43 177 4 0 12 -5 17 -10 7 -7 32 -2 77 15 78 29 107 32 59 7 -18 -10
-29 -22 -25 -27 4 -4 3 -5 -4 -1 -15 8 -73 -20 -73 -35 0 -6 -4 -8 -9 -5 -11
7 -47 -32 -38 -41 7 -6 603 188 649 211 31 17 163 62 338 117 74 23 172 57
217 75 l82 33 73 -31 c40 -17 118 -45 173 -63 55 -18 159 -54 230 -80 72 -26
186 -67 255 -91 69 -25 143 -54 165 -64 139 -65 197 -90 205 -90 5 0 25 -9 44
-19 54 -31 239 -101 266 -101 22 0 22 1 -10 32 -18 17 -54 42 -79 56 -25 13
-35 21 -21 17 44 -13 100 -17 100 -9 0 13 -57 49 -135 85 -70 32 -128 65 -221
125 -29 19 -107 61 -175 96 -68 34 -126 65 -129 69 -3 3 -37 23 -76 42 -40 20
-79 43 -88 52 -9 9 -16 14 -16 11 0 -5 -72 30 -110 54 -8 5 -60 37 -115 71
-130 81 -281 167 -323 184 -29 13 -36 12 -65 -5 -18 -11 -62 -35 -98 -54 -37
-19 -107 -59 -155 -88 -49 -29 -123 -71 -164 -92 -41 -22 -91 -49 -111 -62
-75 -47 -540 -275 -549 -269 -6 3 -10 16 -10 29 0 12 -11 37 -25 56 -14 19
-25 45 -25 59 -1 89 -101 182 -157 146 -30 -20 -21 -38 12 -23 18 8 32 8 54
-2 43 -17 51 -31 57 -91 5 -52 29 -117 48 -130 5 -4 -17 -13 -49 -20 l-58 -13
-32 39 c-31 37 -35 38 -98 40 -48 1 -72 6 -86 19 -11 10 -34 19 -51 21 -17 1
-33 5 -36 8 -10 9 59 88 91 105 16 8 47 14 67 14 20 -1 40 3 43 8 3 6 -1 10
-9 10 -22 0 -21 4 14 52 17 22 30 47 30 54 0 8 23 25 51 39 31 16 58 39 71 61
13 22 38 43 64 56 32 15 51 33 71 69 15 26 36 52 47 57 33 14 -176 38 -219 25
-24 -8 -35 -8 -35 -1 0 22 40 74 70 91 17 10 30 23 28 29 -4 11 -3 11 -71 3
-30 -4 -81 -3 -115 2 -52 8 -69 7 -102 -8 -22 -10 -40 -14 -40 -8 0 24 52 109
77 127 16 11 73 42 128 69 116 57 184 98 191 117 3 7 25 28 50 45 24 18 49 41
54 51 10 19 7 20 -72 16 -147 -7 -181 -20 -250 -89 -58 -60 -59 -60 -24 -14
19 26 41 54 48 62 7 7 24 28 38 46 14 18 44 54 68 80 23 26 51 58 63 73 11 14
31 31 44 38 79 42 138 82 174 116 23 21 43 37 45 34 8 -7 36 56 36 82 0 50
-76 82 -126 53z m54 -51 c-10 -7 -18 -18 -18 -25 0 -6 -4 -11 -10 -11 -5 0 -7
-7 -3 -16 4 -12 10 -8 24 15 28 46 31 37 6 -18 -12 -27 -25 -44 -28 -40 -3 5
-11 -2 -17 -16 -6 -14 -17 -25 -24 -25 -8 0 -30 -11 -51 -25 -29 -20 -37 -22
-37 -10 0 8 -7 15 -15 15 -13 0 -14 4 -3 23 7 12 11 26 10 31 -2 5 5 3 14 -5
16 -12 17 -12 11 3 -4 12 8 29 45 60 29 24 57 42 64 40 7 -1 15 2 19 8 3 5 12
10 18 10 7 0 4 -7 -5 -14z m-188 -209 c0 -5 -4 -5 -10 -2 -5 3 -10 14 -10 23
0 15 2 15 10 2 5 -8 10 -19 10 -23z m-206 -116 c4 -6 2 -11 -3 -11 -6 0 -11
-10 -12 -22 -1 -18 -3 -17 -8 7 -4 17 -12 39 -18 50 -9 15 -8 25 3 40 8 10 15
28 15 39 1 12 5 -4 9 -35 4 -31 10 -61 14 -68z m-47 77 c-3 -8 -6 -5 -6 6 -1
11 2 17 5 13 3 -3 4 -12 1 -19z m-45 -93 c3 -14 1 -25 -3 -25 -5 0 -9 11 -9
25 0 14 2 25 4 25 2 0 6 -11 8 -25z m13 -106 c0 -61 -11 -89 -35 -89 -8 0 -8
6 1 21 6 11 10 44 9 72 -3 66 -2 69 12 65 9 -3 13 -27 13 -69z m187 -93 c-11
-6 -44 -32 -74 -57 -53 -47 -144 -97 -155 -86 -7 7 15 37 27 37 9 0 107 65
133 88 24 21 69 41 80 34 5 -2 0 -9 -11 -16z m-147 -336 c6 -4 23 -6 38 -4 16
1 27 0 25 -4 -2 -4 -15 -32 -30 -63 -18 -39 -40 -68 -74 -93 -46 -35 -106
-116 -86 -116 6 0 32 20 59 44 27 24 68 50 91 57 24 7 49 21 57 32 9 13 31 21
74 26 34 4 61 4 61 0 0 -4 10 -9 21 -12 l21 -6 -22 -31 c-13 -18 -38 -38 -56
-46 -18 -8 -45 -32 -61 -56 -17 -27 -44 -50 -70 -63 -31 -14 -46 -29 -57 -56
-8 -20 -28 -48 -45 -62 -17 -14 -31 -30 -31 -36 0 -6 -10 -11 -22 -11 -13 0
-34 -9 -48 -20 -28 -22 -45 -26 -33 -7 4 6 8 41 9 77 3 162 7 220 14 220 5 0
18 16 30 35 17 27 21 44 16 70 -10 49 -30 43 -61 -17 l-27 -53 6 65 c7 70 33
110 91 136 30 14 90 11 110 -6z m-279 -262 c0 -18 3 -71 7 -118 l6 -85 -14 60
c-21 87 -27 175 -11 175 8 0 12 -13 12 -32z m64 -238 c0 -22 -2 -40 -4 -40 -2
0 -6 18 -8 40 -2 22 0 40 4 40 5 0 8 -18 8 -40z m-134 -137 c9 -16 30 -40 46
-55 15 -14 28 -33 28 -42 0 -9 4 -16 10 -16 5 0 7 6 4 13 -8 22 42 67 73 67
19 0 24 -3 15 -9 -19 -12 -38 -52 -46 -97 -5 -21 -13 -45 -19 -53 -7 -8 -10
-17 -8 -20 2 -3 -5 -10 -15 -16 -17 -9 -18 -18 -12 -97 3 -48 9 -91 12 -97 3
-5 8 -30 11 -56 5 -54 22 -75 50 -64 11 4 15 8 8 8 -7 1 -10 7 -7 15 3 7 -1
20 -9 27 -7 8 -12 20 -9 27 2 6 0 12 -5 12 -4 0 -9 15 -10 33 -1 17 -4 55 -8
84 -6 45 -3 60 23 115 16 35 32 79 36 98 8 47 27 56 119 55 70 -1 79 -4 94
-26 9 -13 23 -30 31 -36 20 -16 73 -17 106 -2 20 9 28 9 40 -4 18 -17 8 -29
-34 -42 -14 -4 -37 -16 -52 -27 -22 -15 -27 -16 -22 -4 9 24 -8 19 -72 -19
-32 -19 -63 -35 -68 -35 -14 -1 -93 -60 -80 -60 5 0 1 -5 -9 -11 -9 -6 -15
-14 -12 -20 4 -5 1 -9 -5 -9 -6 0 -8 -4 -5 -10 3 -5 2 -10 -3 -10 -6 0 -8 -9
-5 -20 3 -11 1 -20 -4 -20 -5 0 -6 -29 -1 -72 5 -47 4 -76 -3 -83 -7 -7 -9 -5
-7 5 4 19 -34 20 -40 1 -3 -8 0 -11 7 -7 6 4 11 1 11 -9 0 -8 7 -18 15 -21 8
-4 15 -15 15 -25 0 -10 5 -19 10 -19 6 0 10 -9 10 -20 0 -11 5 -20 11 -20 5 0
8 -4 4 -9 -3 -6 3 -14 12 -20 11 -7 14 -14 8 -18 -17 -14 -16 -33 2 -26 12 5
15 2 10 -10 -3 -9 -3 -16 1 -16 26 4 40 -4 44 -26 4 -16 0 -25 -11 -28 -10 -3
-7 -5 7 -6 15 -1 26 -9 29 -21 3 -11 10 -20 15 -20 6 0 8 -9 5 -20 -3 -11 0
-18 6 -17 6 1 11 -5 12 -13 0 -9 8 -14 19 -12 11 2 16 -2 14 -9 -2 -7 21 -37
51 -67 31 -30 56 -59 56 -65 0 -7 10 -13 23 -15 22 -3 30 12 12 23 -13 8 -13
25 -1 25 5 0 13 -10 16 -21 6 -17 9 -18 16 -8 4 8 3 19 -4 28 -9 12 -9 13 0 7
10 -5 11 4 7 41 -3 26 -8 59 -11 73 -4 14 -5 31 -4 38 1 6 -2 12 -6 12 -10 0
-15 67 -7 100 5 21 10 12 30 -50 31 -94 42 -194 24 -215 -10 -12 -10 -21 0
-45 9 -23 10 -37 2 -55 -10 -21 -3 -30 86 -117 91 -87 190 -155 272 -188 19
-8 38 -19 42 -24 4 -6 11 -11 15 -11 4 -1 36 -15 71 -33 34 -18 62 -30 62 -27
0 3 11 -2 25 -11 14 -9 25 -20 25 -25 0 -17 -60 1 -155 45 -53 25 -99 46 -101
46 -10 0 -114 72 -114 78 0 4 -15 16 -32 26 -18 11 -54 38 -79 60 -26 23 -72
61 -102 86 -31 25 -56 50 -56 57 -1 7 -26 29 -57 49 -31 21 -59 46 -61 55 -3
9 -13 19 -24 22 -10 3 -19 12 -19 21 0 9 -5 16 -11 16 -15 0 -69 61 -69 78 0
6 -5 12 -11 12 -6 0 -21 12 -32 27 -63 80 -82 122 -54 124 6 0 2 5 -10 11 -13
6 -23 17 -23 23 0 7 -6 18 -14 24 -17 14 -27 61 -13 61 5 0 -2 9 -17 21 -14
11 -24 25 -21 30 4 5 1 9 -4 9 -6 0 -11 10 -11 22 0 12 -7 29 -15 38 -8 9 -17
34 -20 56 -2 22 -11 60 -18 85 -8 25 -11 54 -7 64 4 11 4 22 -1 25 -12 8 2 51
15 44 6 -3 2 2 -8 10 -11 9 -16 16 -11 16 5 0 -2 11 -14 24 -13 14 -20 30 -16
36 10 16 -24 161 -42 182 -14 16 -11 38 6 38 5 0 17 -12 27 -27z m354 -277 c0
-3 -5 -17 -11 -33 -6 -15 -10 -29 -10 -31 1 -1 -10 -24 -24 -50 -13 -26 -32
-88 -40 -137 -8 -50 -17 -96 -20 -102 -2 -7 -1 -13 4 -13 4 0 8 -19 9 -42 l1
-43 -19 39 c-23 45 -26 76 -7 76 8 0 9 2 1 8 -14 9 -15 62 -2 62 5 0 7 13 3
30 -4 17 -3 30 2 30 4 0 9 14 9 31 1 17 7 35 15 40 8 5 11 9 6 9 -12 0 22 60
34 60 6 0 7 5 4 10 -3 6 -1 10 5 10 6 0 8 5 5 10 -3 6 -1 10 4 10 6 0 11 7 11
15 0 8 5 15 10 15 6 0 10 -2 10 -4z m-437 -122 c20 -13 37 -31 37 -39 0 -22
-14 -18 -49 11 -26 22 -39 25 -80 22 -53 -3 -62 9 -21 29 31 14 64 8 113 -23z
m400 -740 c21 -4 37 -12 37 -19 0 -23 -63 -23 -186 -2 -27 5 -44 16 -44 29 0
10 104 5 193 -8z m917 -464 c0 -5 -7 -10 -15 -10 -8 0 -15 5 -15 10 0 6 7 10
15 10 8 0 15 -4 15 -10z"/>
<path d="M1220 1911 c0 -5 5 -13 10 -16 6 -3 10 -2 10 4 0 5 -4 13 -10 16 -5
3 -10 2 -10 -4z"/>
<path d="M1296 1782 c-2 -4 -1 -14 5 -22 7 -12 9 -10 9 8 0 23 -5 28 -14 14z"/>
<path d="M1330 1726 c0 -2 8 -10 18 -17 15 -13 16 -12 3 4 -13 16 -21 21 -21
13z"/>
<path d="M2738 3740 c3 -8 11 -22 19 -31 7 -9 10 -19 6 -22 -12 -13 -23 -7
-23 12 0 10 -8 21 -18 23 -15 4 -18 -1 -18 -28 1 -26 5 -33 17 -29 22 7 31
-39 13 -62 -19 -26 -17 -60 6 -76 10 -7 18 -23 17 -35 -1 -25 -13 -17 -19 13
-2 11 -13 25 -26 31 -12 6 -21 13 -19 15 1 3 -6 -4 -15 -14 -15 -15 -15 -21
-5 -32 8 -7 22 -14 33 -17 14 -2 20 -13 22 -41 3 -30 7 -37 25 -37 19 0 22 6
22 37 0 29 4 38 19 41 11 2 25 10 33 17 14 14 5 26 -29 38 -10 4 -18 13 -18
20 0 10 -9 13 -27 10 -26 -4 -27 -3 -10 10 10 8 17 19 16 23 -6 32 2 66 15 61
8 -3 17 6 23 28 10 31 9 33 -8 22 -23 -15 -34 -4 -20 21 9 17 7 20 -13 18 -16
-1 -22 -6 -18 -16z"/>
<path d="M4065 3656 c-72 -20 -140 -69 -128 -90 3 -6 3 -8 -2 -4 -10 10 -37
-11 -29 -23 3 -5 -2 -9 -10 -9 -14 0 -23 -16 -31 -62 -3 -13 -7 -35 -10 -49
-16 -73 56 -245 115 -277 28 -14 114 -10 135 8 19 16 28 76 15 101 -6 11 -13
28 -16 37 -2 9 -9 36 -16 59 -10 35 -9 45 5 67 10 14 25 26 35 26 10 0 23 5
29 11 8 8 19 7 39 -4 37 -19 119 -108 119 -127 -1 -8 9 -31 20 -50 12 -19 30
-56 40 -82 10 -27 20 -48 24 -48 3 0 7 -15 8 -32 2 -58 15 -138 22 -138 7 0 9
-18 15 -178 3 -67 1 -153 -5 -190 -5 -37 -9 -79 -9 -94 0 -16 -4 -28 -10 -28
-5 0 -10 -25 -10 -55 0 -31 -6 -71 -14 -90 -8 -18 -12 -35 -10 -38 3 -2 0 -16
-6 -31 -5 -15 -12 -41 -15 -58 -3 -17 -9 -36 -13 -42 -4 -6 -7 -13 -7 -16 0
-18 -61 -160 -68 -160 -4 0 -5 -4 -2 -10 3 -5 -4 -29 -17 -52 -12 -24 -22 -45
-23 -48 0 -3 -3 -9 -7 -15 -3 -5 -23 -41 -43 -80 -21 -38 -47 -81 -59 -95 -12
-14 -27 -37 -34 -52 -6 -15 -43 -60 -81 -101 l-70 -74 42 -10 c30 -6 59 -6 95
2 35 8 54 9 62 1 7 -7 10 -7 10 1 0 6 11 13 24 15 19 4 22 1 18 -14 -4 -19
-40 -44 -55 -40 -4 1 -20 -4 -35 -12 -15 -8 -40 -13 -57 -12 -50 4 -125 28
-125 40 0 6 -12 -1 -25 -16 -13 -16 -28 -28 -33 -28 -5 0 -17 -9 -27 -20 -10
-11 -24 -20 -32 -20 -7 0 -13 -4 -13 -9 0 -13 -108 -89 -194 -136 l-68 -38 7
53 c18 131 56 196 200 349 116 122 149 186 143 270 -4 63 -35 136 -57 136 -10
0 -16 -13 -17 -40 -5 -92 -51 -197 -99 -227 -66 -40 -159 -6 -198 72 -23 45
-21 143 3 190 12 23 20 44 18 46 -13 12 -84 -68 -116 -130 -40 -78 -41 -92
-34 -388 3 -100 1 -111 -27 -175 -25 -58 -94 -153 -191 -266 l-25 -29 -3 27
c-1 14 -6 34 -11 43 -21 42 -33 216 -21 337 20 218 39 256 254 505 44 50 88
110 98 132 30 67 25 218 -8 263 -13 17 -16 18 -24 5 -5 -8 -10 -32 -10 -53 0
-52 -21 -98 -80 -172 -94 -118 -157 -147 -249 -113 -102 38 -185 161 -186 275
0 37 5 67 13 75 6 6 12 20 12 30 0 10 7 30 16 43 19 29 13 31 -26 8 -33 -19
-77 -100 -86 -161 -7 -44 11 -304 26 -383 5 -26 14 -107 20 -180 10 -123 9
-142 -11 -246 -22 -109 -39 -146 -39 -83 0 48 -24 93 -69 131 -42 37 -93 53
-202 64 -40 4 -62 12 -77 28 -23 26 -56 91 -66 129 -3 15 -14 34 -23 43 -25
26 -25 123 1 153 31 36 61 29 85 -20 11 -24 23 -62 27 -85 4 -24 10 -43 14
-43 20 0 30 35 32 111 2 66 -2 93 -17 124 -26 55 -58 105 -68 105 -4 0 -20 11
-35 25 -15 14 -44 31 -64 37 -21 6 -38 15 -38 19 0 5 7 5 17 2 10 -4 14 -2 10
4 -4 6 -3 13 3 15 5 1 11 13 13 25 2 12 6 25 9 28 9 10 -9 77 -24 87 -7 4 -21
6 -30 4 -10 -2 -18 0 -18 5 0 4 -7 6 -15 2 -23 -8 -49 -64 -46 -98 3 -35 39
-78 59 -70 7 2 11 1 8 -4 -3 -5 -27 -12 -53 -16 -27 -4 -57 -12 -68 -17 -31
-16 -95 -80 -89 -90 3 -4 10 -5 16 -2 7 4 8 2 4 -5 -4 -6 -12 -9 -17 -5 -30
18 -79 -108 -82 -215 -1 -33 -5 -61 -9 -61 -4 0 -3 -11 2 -25 8 -20 7 -23 -7
-18 -12 5 -15 2 -10 -10 3 -9 2 -19 -3 -22 -15 -9 -12 -32 5 -39 10 -3 18 1
22 12 15 46 66 142 74 142 6 0 8 4 5 9 -3 5 13 28 36 52 31 33 40 39 36 22 -4
-13 -1 -24 8 -27 8 -3 14 -11 14 -18 0 -11 -2 -11 -8 0 -5 7 -9 -32 -9 -85 0
-101 -20 -194 -61 -299 -12 -28 -26 -97 -33 -152 -12 -94 -12 -103 6 -122 24
-26 35 -25 35 3 0 33 48 87 77 87 36 0 69 -40 89 -106 22 -74 34 -89 57 -72
27 20 40 126 32 263 -3 66 -9 135 -12 154 -9 51 14 36 51 -34 29 -57 31 -66
31 -170 0 -107 -1 -113 -38 -189 -58 -123 -24 -126 89 -8 l54 57 0 -40 c0 -23
-7 -65 -15 -95 -30 -112 -31 -109 19 -55 62 66 58 61 95 138 27 57 32 79 33
148 1 67 4 82 20 90 10 5 22 7 27 4 15 -9 34 -105 28 -146 -4 -34 -3 -38 9
-28 8 6 18 9 21 5 4 -4 3 -10 -3 -14 -5 -4 -20 -23 -32 -43 -26 -43 -136 -148
-180 -171 -18 -9 -32 -24 -32 -33 0 -23 11 -22 160 26 78 26 190 120 238 201
21 35 29 35 37 0 7 -34 65 -119 103 -149 l27 -23 -42 0 c-33 0 -46 -5 -62 -26
-38 -48 -26 -108 26 -143 69 -45 248 -27 398 39 22 10 85 37 140 60 149 62
336 180 418 262 15 15 28 28 30 28 8 0 129 123 164 165 51 64 163 231 163 244
0 6 9 15 20 21 11 6 20 18 20 28 0 9 16 43 35 76 31 51 82 161 89 191 1 6 9
26 18 45 27 56 38 110 25 110 -7 0 -4 5 6 11 9 5 17 18 17 27 0 9 13 70 30
134 24 100 31 151 40 340 9 191 9 240 -5 342 -8 66 -20 136 -25 155 -5 20 -16
68 -25 106 -9 39 -22 84 -29 100 -7 17 -21 49 -31 73 -23 54 -74 134 -106 165
-80 79 -238 129 -301 96 -15 -8 -19 -8 -14 0 4 6 6 10 4 10 -2 -1 -21 -7 -43
-13z m545 -960 c0 -29 -8 -41 -43 -70 -54 -44 -110 -53 -115 -18 -3 16 2 22
15 22 25 0 81 36 112 71 14 16 27 29 28 29 2 0 3 -15 3 -34z m-2420 -540 c0
-2 -8 -10 -17 -17 -16 -13 -17 -12 -4 4 13 16 21 21 21 13z m-90 -250 c0 -3
-4 -8 -10 -11 -5 -3 -10 -1 -10 4 0 6 5 11 10 11 6 0 10 -2 10 -4z m1367 -108
c-3 -8 -6 -5 -6 6 -1 11 2 17 5 13 3 -3 4 -12 1 -19z m-520 -10 c-3 -8 -6 -5
-6 6 -1 11 2 17 5 13 3 -3 4 -12 1 -19z m-557 -153 c7 -8 8 -15 3 -15 -6 0
-15 -10 -21 -22 -10 -21 -11 -20 -11 15 -1 39 9 47 29 22z m607 -27 c-3 -8 -6
-5 -6 6 -1 11 2 17 5 13 3 -3 4 -12 1 -19z m506 -444 c5 -8 -19 -21 -71 -39
-42 -15 -99 -36 -125 -47 -56 -22 -72 -18 -30 9 42 27 62 43 122 99 l55 51 21
-31 c11 -17 24 -36 28 -42z"/>
<path d="M2612 3456 c-7 -17 -7 -27 1 -35 6 -6 7 -11 1 -11 -6 0 -15 5 -20 10
-8 8 -15 6 -24 -4 -16 -20 -6 -46 20 -53 11 -3 17 -9 14 -14 -3 -5 0 -9 6 -9
6 0 8 -5 5 -11 -5 -7 5 -9 26 -7 26 2 34 8 34 23 0 14 8 21 28 23 23 3 27 0
27 -22 0 -32 -21 -85 -27 -68 -4 10 -8 10 -21 0 -12 -10 -16 -10 -19 0 -3 6
-10 12 -17 12 -7 0 -20 8 -30 19 -20 22 -57 17 -74 -10 -10 -16 -9 -19 3 -19
15 0 40 -48 30 -58 -2 -3 2 -10 11 -17 15 -10 15 -13 0 -27 -18 -19 -39 -68
-31 -76 2 -3 17 -5 32 -6 18 -1 28 -7 28 -16 0 -18 39 -27 126 -29 92 -1 129
7 129 30 0 15 7 19 35 19 19 0 35 3 35 8 0 4 -11 24 -25 44 -24 35 -24 37 -8
70 9 18 23 38 30 43 20 15 6 42 -25 48 -19 4 -37 -2 -59 -19 -18 -14 -33 -29
-33 -34 0 -5 -7 -7 -15 -4 -8 4 -13 10 -10 14 3 4 -2 10 -10 14 -10 3 -15 19
-15 46 0 36 2 40 25 40 18 0 28 -7 35 -25 11 -30 40 -33 47 -5 3 11 12 20 20
20 17 0 43 24 43 41 0 9 -4 8 -15 -1 -12 -10 -15 -10 -15 0 0 7 -7 10 -15 7
-8 -4 -17 -2 -20 3 -4 6 -2 10 3 10 5 0 7 11 4 25 -3 20 -7 23 -22 15 -13 -7
-20 -6 -23 3 -2 6 -6 0 -9 -15 -4 -19 -1 -25 9 -21 7 3 13 1 13 -5 0 -13 -36
-22 -95 -22 -76 0 -94 8 -89 36 3 17 0 24 -11 24 -9 0 -13 5 -10 10 3 6 0 10
-8 10 -7 0 -19 -11 -25 -24z m153 -226 c3 -5 -3 -10 -14 -10 -12 0 -21 5 -21
10 0 6 6 10 14 10 8 0 18 -4 21 -10z m-45 -31 c0 -15 -4 -19 -16 -15 -9 3 -18
6 -20 6 -2 0 -4 7 -4 15 0 8 9 15 20 15 14 0 20 -7 20 -21z m100 7 c0 -15 -37
-32 -47 -22 -3 3 -3 12 0 21 8 19 47 20 47 1z m-140 -57 c0 -5 -5 -7 -11 -4
-6 4 -13 -2 -16 -13 -3 -14 -11 -18 -24 -15 -24 7 -24 19 -1 32 23 14 52 14
52 0z m189 -2 c8 -10 7 -19 -4 -33 -15 -19 -15 -19 -13 1 2 14 -4 21 -19 23
-13 2 -23 8 -23 13 0 14 46 11 59 -4z m-59 -33 c0 -8 -6 -14 -12 -14 -9 0 -8
-4 2 -10 23 -15 -6 -30 -45 -23 -46 9 -54 23 -12 23 55 0 45 17 -15 26 l-53 8
45 6 c58 7 90 1 90 -16z"/>
<path d="M3861 3089 c-13 -5 -42 -10 -65 -10 -64 -1 -76 -7 -76 -37 0 -15 -10
-47 -21 -72 -12 -25 -29 -72 -39 -105 -9 -33 -29 -78 -44 -99 -14 -21 -26 -47
-26 -58 0 -10 -6 -21 -13 -24 -13 -4 -17 -58 -5 -69 2 -3 20 0 39 5 58 17 145
12 194 -11 25 -12 45 -26 44 -33 -3 -28 3 -38 33 -51 42 -17 135 -8 167 16 17
14 41 19 83 19 61 0 105 -16 146 -53 19 -18 25 -19 32 -7 10 16 5 82 -7 104
-9 16 1 211 16 302 9 64 0 89 -35 98 -15 4 -43 20 -61 37 -52 45 -108 50 -175
15 -22 -12 -29 -12 -35 -2 -25 40 -97 57 -152 35z m129 -54 c9 -8 20 -12 23
-8 9 8 -2 -81 -14 -122 -10 -34 -14 -59 -29 -164 -9 -64 -8 -77 5 -90 10 -10
18 -12 23 -6 4 6 23 10 42 11 19 0 58 4 85 8 39 6 54 4 70 -9 19 -15 18 -16
-27 -10 -28 4 -49 2 -53 -5 -3 -5 -20 -10 -36 -10 -21 0 -39 -10 -58 -31 -25
-27 -33 -30 -62 -24 -19 4 -53 25 -76 46 -23 21 -54 41 -70 45 -15 3 -41 10
-58 15 -25 7 -21 8 20 5 47 -4 48 -3 25 11 -24 14 -23 14 18 8 29 -4 41 -2 37
5 -3 6 -11 8 -16 5 -5 -4 -9 -2 -9 4 0 6 -16 13 -35 17 -20 3 -34 9 -31 11 10
10 106 -22 132 -44 31 -26 44 -29 44 -10 0 52 -124 86 -220 61 -29 -8 -54 -13
-56 -11 -1 1 11 36 26 77 15 41 36 102 46 135 22 72 31 86 50 78 9 -3 25 -1
37 5 12 6 29 13 37 16 26 10 112 -3 130 -19z m213 -15 c19 -16 37 -30 40 -30
3 0 17 -4 30 -9 23 -9 24 -12 15 -48 -14 -58 -18 -90 -18 -181 0 -46 -2 -87
-5 -92 -3 -5 -24 2 -48 15 -56 31 -95 38 -148 26 -24 -5 -45 -8 -47 -6 -3 2 0
32 6 67 6 35 16 99 22 143 9 75 12 82 47 112 47 40 63 41 106 3z m-433 -310
c0 -6 -11 -8 -27 -4 -40 10 -41 14 -5 14 18 0 32 -5 32 -10z"/>
<path d="M3823 3008 c-36 -9 -43 -24 -15 -32 27 -8 121 -10 129 -3 20 21 -67
48 -114 35z"/>
<path d="M3785 2931 c-4 -9 2 -21 12 -29 11 -8 19 -9 21 -2 5 13 72 13 72 0 0
-5 5 -10 10 -10 6 0 10 9 10 20 0 11 -7 20 -15 20 -8 0 -15 5 -15 11 0 8 -6 7
-17 -2 -12 -10 -15 -11 -9 -1 6 10 -1 12 -28 10 -21 -1 -38 -8 -41 -17z"/>
<path d="M3786 2865 c-26 -11 -27 -13 -10 -18 10 -3 39 -5 62 -6 24 -1 48 -4
54 -7 7 -5 7 -1 0 11 -5 10 -16 20 -23 21 -8 2 -23 5 -34 7 -11 2 -33 -1 -49
-8z"/>
<path d="M3760 2810 c-24 -15 -2 -24 51 -21 28 1 57 -3 65 -10 21 -17 31 -1
11 18 -18 19 -104 27 -127 13z"/>
<path d="M4116 2972 c-4 -6 -13 -9 -20 -6 -8 3 -17 0 -21 -6 -6 -9 8 -10 54
-5 49 6 66 4 87 -10 32 -21 41 -15 14 10 -23 20 -104 33 -114 17z"/>
<path d="M4097 2896 c-6 -16 19 -30 28 -16 9 15 49 12 71 -5 33 -25 41 -16 9
10 -34 28 -99 35 -108 11z"/>
<path d="M4085 2816 c-18 -13 -14 -15 45 -13 36 1 74 -2 85 -7 11 -4 7 1 -10
11 -37 24 -94 28 -120 9z"/>
<path d="M4098 2762 c-38 -8 -15 -22 35 -22 29 0 58 -5 65 -12 6 -6 14 -9 18
-6 3 4 -6 14 -20 23 -25 17 -65 24 -98 17z"/>
<path d="M3105 2251 c-34 -14 -56 -46 -61 -90 -4 -34 0 -48 22 -76 41 -54 89
-43 133 29 29 47 27 82 -8 117 -30 30 -50 34 -86 20z"/>
<path d="M3596 1893 c-29 -31 -40 -71 -31 -112 9 -40 28 -54 64 -46 42 9 59
33 62 89 3 38 -1 53 -18 72 -28 31 -46 30 -77 -3z"/>
<path d="M2575 1742 c-37 -8 -52 -30 -50 -74 1 -29 8 -47 25 -60 27 -22 83
-24 104 -2 18 18 21 66 6 95 -14 24 -59 47 -85 41z"/>
<path d="M1363 4784 c-94 -56 -50 -143 52 -104 15 6 31 7 36 4 15 -9 -11 -35
-30 -29 -9 2 -29 -4 -45 -14 -28 -18 -28 -19 -8 -30 30 -16 49 -14 92 10 45
26 65 58 56 93 -8 32 -38 41 -92 26 -25 -7 -48 -10 -51 -6 -9 9 18 27 33 22 5
-2 21 5 35 15 20 16 22 20 9 29 -23 15 -41 12 -87 -16z"/>
<path d="M1178 4662 c-16 -9 -35 -31 -43 -49 -14 -28 -14 -36 -1 -66 31 -75
105 -90 162 -33 45 45 46 91 5 135 -34 36 -79 41 -123 13z m77 -68 c20 -30 14
-54 -14 -54 -24 0 -56 43 -47 65 9 23 42 18 61 -11z"/>
<path d="M4156 4599 l-109 -71 29 -23 c19 -15 34 -20 44 -15 21 12 73 -27 67
-51 -4 -13 4 -26 25 -40 16 -12 31 -19 34 -17 2 3 22 57 43 121 36 106 38 117
23 129 -47 39 -43 40 -156 -33z m77 -59 c-15 -38 -17 -39 -35 -24 -17 16 -17
18 15 40 17 13 33 23 34 24 1 0 -6 -18 -14 -40z"/>
<path d="M978 4577 l-27 -22 61 -68 c40 -45 58 -73 54 -84 -6 -14 -8 -14 -26
2 -20 18 -21 18 -45 -5 l-25 -24 22 -23 c33 -35 82 -31 124 11 38 38 43 68 18
106 -20 29 -116 130 -124 130 -3 -1 -17 -11 -32 -23z"/>
<path d="M4408 4514 c-15 -15 -14 -18 10 -39 25 -22 28 -22 45 -8 16 16 16 17
-5 40 -26 27 -29 28 -50 7z"/>
<path d="M4317 4421 c-32 -33 -57 -64 -57 -69 0 -5 12 -18 27 -27 l27 -18 59
63 58 62 -22 24 c-12 13 -26 24 -29 24 -4 0 -32 -27 -63 -59z"/>
<path d="M4402 4337 l-63 -63 25 -23 25 -24 37 32 c20 18 41 30 48 28 6 -3 18
-8 27 -11 9 -4 26 2 40 14 24 20 24 20 4 35 -11 9 -25 13 -33 10 -7 -2 -10 0
-7 5 6 9 -24 59 -35 60 -3 0 -34 -28 -68 -63z"/>
<path d="M4504 4216 c-48 -48 -46 -86 5 -137 42 -42 66 -47 111 -24 37 19 50
43 50 90 0 50 -53 105 -100 105 -23 0 -41 -9 -66 -34z m105 -45 c8 -14 5 -23
-13 -40 -27 -25 -54 -27 -63 -4 -4 10 3 24 21 40 33 28 42 29 55 4z"/>
<path d="M651 4212 c-20 -29 -20 -30 -1 -47 11 -10 17 -22 14 -27 -10 -15 17
-40 31 -28 9 7 25 0 56 -25 24 -19 52 -35 61 -35 9 0 28 15 42 32 23 30 24 34
9 50 -11 13 -20 15 -27 8 -15 -15 -28 -12 -59 16 -23 19 -26 28 -17 39 15 18
-21 40 -38 23 -9 -9 -16 -7 -31 6 -18 16 -20 16 -40 -12z"/>
<path d="M864 4215 c-16 -25 -16 -27 6 -50 l24 -25 28 27 29 28 -28 22 c-35
29 -39 29 -59 -2z"/>
<path d="M4673 4052 l-92 -66 17 -28 c9 -15 20 -28 25 -28 7 0 163 107 191
131 10 8 -24 59 -39 58 -5 -1 -51 -31 -102 -67z"/>
<path d="M546 4075 c-15 -14 -34 -41 -42 -61 -19 -46 -5 -87 36 -104 33 -13
54 -5 109 42 23 21 37 26 44 19 12 -12 -17 -51 -37 -51 -11 0 -46 -50 -46 -64
0 -3 15 -6 34 -6 84 0 151 125 96 180 -31 31 -75 26 -123 -15 -22 -19 -44 -35
-49 -35 -18 0 -6 25 32 62 23 21 38 43 35 48 -12 19 -62 10 -89 -15z"/>
<path d="M4827 4009 c-17 -10 -17 -12 0 -40 19 -32 34 -36 52 -15 10 12 9 20
-4 40 -19 29 -22 30 -48 15z"/>
<path d="M4713 3934 l-73 -46 21 -29 c11 -16 22 -29 25 -29 9 0 144 93 144 99
0 11 -31 51 -38 51 -4 0 -40 -21 -79 -46z"/>
<path d="M4127 889 c-11 -6 -25 -25 -33 -43 -7 -17 -13 -25 -14 -18 0 9 -9 7
-30 -8 l-30 -21 56 -70 c31 -38 59 -69 63 -69 4 0 17 10 29 23 l21 22 -34 44
c-39 49 -41 54 -21 70 15 13 40 -6 73 -56 18 -28 27 -28 57 -5 l24 17 -32 44
c-53 75 -88 94 -129 70z"/>
<path d="M1291 747 c-33 -51 -61 -98 -61 -104 0 -12 81 -66 124 -83 43 -16 91
4 122 50 36 54 41 99 14 133 -18 22 -121 97 -134 97 -2 0 -31 -42 -65 -93z
m136 -34 c7 -19 -23 -79 -44 -87 -16 -7 -53 10 -53 24 0 5 12 29 28 53 22 37
30 43 45 35 10 -5 21 -16 24 -25z"/>
<path d="M3912 730 c-33 -24 -42 -36 -42 -60 0 -40 15 -38 56 7 23 25 37 34
44 27 7 -7 -3 -23 -30 -49 -44 -43 -50 -73 -22 -98 27 -24 57 -21 89 11 15 15
45 36 66 46 37 19 37 20 19 40 -10 12 -30 40 -45 64 -23 36 -32 42 -61 42 -21
0 -48 -11 -74 -30z m98 -94 c0 -17 -28 -41 -37 -32 -9 9 18 57 29 50 4 -3 8
-11 8 -18z"/>
<path d="M1556 694 c-10 -25 -7 -30 21 -43 22 -10 29 -9 42 4 15 15 14 18 -8
36 -28 23 -47 24 -55 3z"/>
<path d="M3804 658 c-19 -9 -20 -15 -13 -46 15 -64 11 -68 -28 -30 -36 35 -39
36 -65 22 -16 -8 -28 -17 -28 -20 0 -4 32 -36 70 -71 66 -62 70 -67 55 -83
-13 -15 -14 -23 -5 -39 10 -20 13 -20 39 -7 53 28 55 34 35 166 -10 69 -22
120 -28 119 -6 0 -21 -5 -32 -11z"/>
<path d="M1490 574 c-23 -41 -40 -76 -39 -78 2 -1 16 -10 31 -19 l26 -16 28
47 c14 26 35 61 46 79 l19 32 -30 15 c-17 9 -32 16 -35 16 -2 0 -23 -34 -46
-76z"/>
<path d="M3593 624 c-32 -13 -32 -14 -18 -46 33 -80 84 -188 89 -188 3 0 17 5
31 12 32 14 31 22 -27 145 l-43 90 -32 -13z"/>
<path d="M1612 575 c-27 -19 -52 -66 -52 -96 0 -11 15 -36 34 -55 28 -28 42
-34 75 -34 95 0 135 116 61 172 -37 27 -90 33 -118 13z m86 -71 c4 -29 -29
-67 -51 -59 -21 9 -22 34 -1 63 19 27 48 25 52 -4z"/>
<path d="M3306 516 c-30 -9 -43 -20 -61 -56 l-24 -45 -11 33 c-12 33 -19 36
-57 26 -29 -8 -28 -17 6 -139 28 -99 29 -100 57 -97 41 5 49 16 37 54 -17 56
-5 61 43 19 43 -38 44 -38 90 -28 l47 11 -69 63 -69 62 28 52 c16 28 27 52 25
54 -2 1 -20 -3 -42 -9z"/>
<path d="M3448 499 c-39 -20 -63 -52 -53 -70 9 -13 46 -1 68 22 10 11 24 19
32 19 28 0 15 -21 -30 -48 -53 -32 -63 -54 -41 -87 20 -31 63 -33 99 -5 14 11
33 20 44 20 25 1 68 26 56 33 -6 4 -18 28 -28 54 -10 26 -25 56 -33 66 -20 22
-67 21 -114 -4z m82 -108 c0 -20 -25 -35 -42 -25 -5 3 -2 14 8 25 22 24 34 24
34 0z"/>
<path d="M1791 474 c-62 -78 -17 -164 87 -164 25 0 45 7 55 18 23 25 22 28
-14 41 -23 8 -36 8 -45 0 -17 -14 -44 -5 -44 15 0 52 55 91 67 47 4 -18 30
-31 61 -31 20 0 14 37 -11 66 -19 22 -34 28 -79 32 -51 4 -56 2 -77 -24z"/>
<path d="M2984 450 c-45 -10 -54 -18 -54 -51 0 -16 -4 -29 -10 -29 -5 0 -10
-9 -10 -20 0 -11 7 -20 15 -20 10 0 15 -10 15 -27 0 -16 3 -45 6 -65 6 -35 9
-38 41 -38 l35 0 -7 69 c-6 56 -4 69 8 74 10 4 13 13 10 26 -3 12 -11 17 -19
14 -20 -7 -17 14 3 26 13 7 15 14 7 28 -7 16 -15 18 -40 13z"/>
<path d="M1997 415 c-34 -35 -38 -104 -8 -134 38 -38 126 -47 152 -15 17 21 4
28 -47 29 -34 0 -48 5 -56 19 -12 21 -20 21 97 0 35 -7 35 -6 35 29 0 55 -34
88 -96 94 -44 5 -52 2 -77 -22z m103 -30 c18 -21 7 -28 -30 -20 -25 6 -29 9
-19 21 15 18 33 18 49 -1z"/>
<path d="M2223 385 c-15 -10 -23 -27 -23 -44 0 -23 8 -32 45 -52 25 -13 45
-30 45 -36 0 -20 -23 -15 -43 7 -20 24 -67 27 -67 5 0 -26 37 -53 83 -60 57
-9 86 0 98 32 12 33 -3 58 -51 83 -22 11 -40 25 -40 30 0 14 16 12 32 -3 7 -8
26 -16 41 -19 21 -4 27 -1 27 13 0 43 -106 74 -147 44z"/>
<path d="M2415 347 c-18 -15 -28 -36 -32 -64 -5 -37 -2 -45 25 -73 39 -39 104
-42 148 -8 l28 22 -35 7 c-19 4 -39 3 -46 -2 -14 -12 -53 5 -53 23 0 7 22 9
70 5 65 -5 70 -4 70 14 0 28 -27 77 -49 89 -35 18 -98 12 -126 -13z m93 -29
c20 -20 14 -29 -15 -22 -35 8 -37 10 -28 23 8 14 28 14 43 -1z"/>
<path d="M2755 358 c-33 -19 -44 -41 -45 -86 0 -61 32 -92 97 -92 51 1 73 12
91 47 35 65 -12 143 -85 143 -21 0 -47 -6 -58 -12z m75 -59 c18 -33 9 -64 -20
-64 -20 0 -26 6 -28 28 -7 55 25 79 48 36z"/>
</g>
</svg>
